<svg id="Ñëîé_1" data-name="Ñëîé 1" xmlns="http://www.w3.org/2000/svg" viewBox="0 0 208.21887 208.2189">
  <defs>
    <style>
      .cls-1 {
        fill: #f5f5f5;
      }

      .cls-2 {
        fill: #5b4842;
      }

      .cls-3 {
        fill: #ffe5ba;
      }

      .cls-4 {
        fill: #7c6d68;
      }

      .cls-5 {
        fill: #f39200;
      }

      .cls-6 {
        fill: #ededed;
      }

      .cls-7 {
        fill: #fff;
      }

      .cls-8 {
        fill: #b56700;
      }
    </style>
  </defs>
  <g>
    <g>
      <circle class="cls-1" cx="104.10913" cy="104.10945" r="101.86046"/>
      <path class="cls-2" d="M128.85883,40.6146S82.6585,44.84224,69.85426,30.25746c0,0,47.6991-25.92267,68.38083,8.81516,0,0,16.17477,4.75768,12.90737,24.70925,0,0-3.58858-5.043-8.80791-4.44595C137.11166,59.93545,128.85883,40.6146,128.85883,40.6146Z"/>
      <path class="cls-3" d="M145.81411,87.56782c0,20.58351-17.82455,38.41407-41.85508,38.41407-24.03789,0-43.51467-16.67828-43.51467-37.25577,0-53.8356,18.65072-55.1066,42.68493-55.1066C127.16706,33.61952,145.81411,39.19257,145.81411,87.56782Z"/>
      <path class="cls-3" d="M68.68528,97.395a5.95435,5.95435,0,1,1-5.952-5.95674A5.96538,5.96538,0,0,1,68.68528,97.395Z"/>
      <path class="cls-3" d="M139.222,97.395a5.96024,5.96024,0,1,0,5.95907-5.95674A5.966,5.966,0,0,0,139.222,97.395Z"/>
      <rect class="cls-3" x="96.63307" y="124.29847" width="12.99123" height="18.98272"/>
      <path class="cls-2" d="M106.05131,27.78028C74.4549,24.25517,66.09059,36.249,63.97315,49.39132c0,0,4.68327,10.64248,39.517,10.64248S141.355,49.39132,141.355,49.39132C134.49782,32.31732,116.68654,28.96853,106.05131,27.78028Z"/>
      <path class="cls-2" d="M138.19924,40.0438s-33.118-24.624-77.19243-6.69526c0,0,23.268,11.51286,29.9993,10.24909C97.73844,42.322,139.64164,40.0007,138.19924,40.0438Z"/>
      <path class="cls-2" d="M145.34534,91.81241s9.28625-37.161-3.99032-42.42109c-2.265-.90168-6.82245,5.362-6.82245,5.362S134.01456,69.51319,145.34534,91.81241Z"/>
      <path class="cls-2" d="M60.66389,91.81241S51.22526,53.986,64.49594,48.72463c2.27092-.89923,6.98538,6.02869,6.98538,6.02869S72.00055,69.51319,60.66389,91.81241Z"/>
      <path class="cls-2" d="M69.96463,52.72931A19.89746,19.89746,0,0,1,57.41086,41.9551S63.195,38.59182,75.998,33.61952C83.56264,30.67712,69.96463,52.72931,69.96463,52.72931Z"/>
      <path class="cls-4" d="M137.70161,50.36729c-4.44594,5.37882-59.41588,12.95538-78.913-7.33076,0,0,45.31671,10.8943,72.72856,3.01668C137.12124,44.43941,140.4677,47.02083,137.70161,50.36729Z"/>
      <path class="cls-5" d="M163.27891,151.08674c-1.18224-1.13669-25.78835-9.20118-25.78835-9.20118-5.507,5.57785-34.92,2.091-34.92,2.091v.13432c.87762-.036,1.386-.06839,1.386-.06839l.00356,61.70842h0A102.62283,102.62283,0,0,0,171.66,180.3571C170.39505,167.61633,167.97066,155.59751,163.27891,151.08674Z"/>
      <path class="cls-5" d="M44.63658,151.08674c1.18346-1.13669,25.78847-9.20118,25.78847-9.20118,5.50823,5.57785,34.91881,2.091,34.91881,2.091v.13432c-.87652-.036-1.38372-.06839-1.38372-.06839l-.00356,61.70842h0a102.62576,102.62576,0,0,1-67.701-25.39386C37.52289,167.61633,39.94606,155.59751,44.63658,151.08674Z"/>
      <path class="cls-6" d="M103.96014,178.60652s-11.77781.5611-12.58115,0c-.801-.56356-4.50955-18.737-4.41844-21.55592.09711-2.8152.8549-12.2526,4.41844-12.2526,3.56464,0,30.12392-7.04431,33.74737-1.41134C128.75337,149.02331,116.358,185.78859,103.96014,178.60652Z"/>
      <path class="cls-5" d="M103.96014,141.88556v14.08716h-3.75888a48.30109,48.30109,0,0,1-4.69408-9.95294S99.35839,142.26078,103.96014,141.88556Z"/>
      <path class="cls-5" d="M103.96014,141.88556v14.08716h3.75408a48.19666,48.19666,0,0,0,4.69777-9.95294S108.55956,142.26078,103.96014,141.88556Z"/>
      <path class="cls-7" d="M96.63307,131.38453l-17.833,7.368,13.61,15.9049,11.55-12.77183S96.85358,139.19253,96.63307,131.38453Z"/>
      <path class="cls-7" d="M109.6243,131.52131l19.49716,7.23118-13.7047,15.9049-11.45662-12.77183S109.55591,139.46829,109.6243,131.52131Z"/>
      <g>
        <path class="cls-5" d="M100.20126,155.97272c-3.92315,11.45662-4.69408,30.52209-4.69408,30.52209l8.453,15.86893v-46.391Z"/>
        <path class="cls-5" d="M107.71422,155.97272h-3.75408v46.391l9.893-15.25147S113.37838,170.048,107.71422,155.97272Z"/>
      </g>
      <polygon class="cls-8" points="122.396 136.259 137.491 141.886 129.121 154.657 134.404 162.263 103.96 202.364 122.396 136.259"/>
      <polygon class="cls-8" points="84.723 136.303 69.63 141.929 77.999 154.701 72.716 162.307 103.16 202.406 84.723 136.303"/>
    </g>
    <g>
      <path class="cls-8" d="M141.51355,189.26224a9.72963,9.72963,0,1,1,9.74319-9.71008A9.73237,9.73237,0,0,1,141.51355,189.26224Zm-.0116-.52814a9.18511,9.18511,0,1,0-9.17621-9.20786A9.19628,9.19628,0,0,0,141.502,188.7341Z"/>
      <path class="cls-8" d="M141.50462,187.78976a8.241,8.241,0,1,1,8.255-8.04093A8.24435,8.24435,0,0,1,141.50462,187.78976Zm4.3069-12.388h-8.58771v1.36848h.20807c.77869,0,1.55746-.00663,2.33605.00229a1.03661,1.03661,0,0,1,1.05845,1.01681,1.01619,1.01619,0,0,1-1.057,1.06055c-.78472.00629-1.56953.00154-2.35431.00157h-.18817v1.38771c.84085,0,1.6686.01984,2.49475-.00789a1.12471,1.12471,0,0,1,1.06746.7514,1.03541,1.03541,0,0,1-.91045,1.30357c-.82118-.00824-1.64251-.00063-2.46378.00016-.06419.00006-.12838,0-.19129,0v1.40916h8.58211v-1.4117c-.90906,0-1.80307.00252-2.697-.00338a.69867.69867,0,0,1-.3111-.07706,1.04886,1.04886,0,0,1-.56243-.70528,1.02788,1.02788,0,0,1,.95049-1.25742c.809-.00642,1.6182-.00157,2.42731-.00157h.19373v-1.38773c-.84724,0-1.68042.00134-2.51359-.00082a1.08978,1.08978,0,0,1-.69288-.21706,1.03467,1.03467,0,0,1-.2564-1.33844,1.017,1.017,0,0,1,.92706-.52328c.77866-.00515,1.55737-.00156,2.33606-.00159l.2046,0Z"/>
    </g>
  </g>
</svg>
